<svg xmlns="http://www.w3.org/2000/svg" width="40" height="48" fill="none" viewBox="0 0 40 48"><g clip-path="url(#a)"><path fill="url(#b)" d="M20.64 41.753c1.616-.663 10.297-4.642 12.85-13.513v-.083c.681-3.482 1.787-14.259 1.787-20.145a.625.625 0 0 0-.425-.58C29.83 5.608 23.788 5.11 20.469 5.11h-.255c-1.873.083-9.277.58-14.298 2.404a.625.625 0 0 0-.426.58c.085 5.72 1.107 16.663 1.787 20.145v.083c2.554 8.788 11.235 12.767 12.851 13.43q.255.124.511 0"/><path fill="url(#c)" d="M20.214 5.194c-1.873 0-9.362.414-14.383 2.238-.256.083-.426.249-.34.497.17 1.575 4.765 8.788 11.148 13.845 6.894 5.471 15.83 6.466 16.426 6.466.17 0 .425-.166.51-.331.681-3.4 1.702-14.094 1.788-19.897a.625.625 0 0 0-.426-.58c-5.021-1.824-11.064-2.238-14.383-2.238z" opacity=".3"/><path fill="#fff" d="M26.171 9.007c.68-.083 1.277-.083 1.872.083a6.2 6.2 0 0 1 1.703.746c.51.332.936.746 1.276 1.326a3.96 3.96 0 0 1 .681 1.741c.085.58.085 1.244 0 1.824-.17.58-.425 1.16-.766 1.658-.34.498-.766.912-1.362 1.244-.51.331-1.106.58-1.787.663a4.17 4.17 0 0 1-2.468-.249c-.766-.248-1.447-.746-2.043-1.41-.51-.662-.936-1.325-1.02-2.237-.086-.664-.086-1.244.084-1.824s.426-1.16.766-1.658.851-.912 1.362-1.244c.425-.331 1.021-.497 1.702-.663m.085.746c-.68.083-1.361.415-1.872.83-.51.414-.936.994-1.192 1.657s-.34 1.327-.17 1.99c.17.912.596 1.74 1.362 2.321.17.083.255.249.425.332q1.277.746 2.809.497c.68-.083 1.362-.415 1.872-.829s.936-.995 1.192-1.658.34-1.326.17-1.99c-.085-.497-.255-.994-.596-1.409-.255-.415-.68-.746-1.106-1.078-.426-.248-.851-.497-1.362-.58-.425-.166-.936-.166-1.532-.083m2.639 2.819h-.17c-.171 0-.256 0-.341-.166-.256-.497-.681-.746-1.362-.746-.34 0-.596.083-.85.249-.256.165-.427.414-.597.663-.17.331-.17.663-.255 1.078 0 .58.17 1.077.425 1.409.256.331.681.497 1.192.497.34 0 .68-.083.936-.248.255-.166.426-.332.51-.58.086-.167.256-.25.341-.167l.256.083c.17.083.255.166.17.332-.085.249-.255.414-.426.663a3 3 0 0 1-.85.58c-.341.166-.682.166-1.022.166-.51 0-.936-.083-1.362-.331-.34-.25-.68-.58-.85-.995q-.256-.622-.256-1.492c0-.332.085-.664.17-.995.085-.332.255-.58.51-.83.256-.248.511-.414.852-.497s.68-.165 1.106-.165c.51 0 1.021.165 1.362.414.255.166.51.415.596.746.17.083.085.332-.085.332"/><path stroke="#1e73b7" stroke-miterlimit="10" stroke-width="2" d="M20.299 46.561c1.957-.829 12.936-5.72 16.085-16.663v-.083c.85-4.31 2.213-17.575 2.298-24.87q0-.497-.51-.746C31.872 1.877 24.383 1.38 20.128 1.38h-.256c-2.383 0-11.66.497-18.042 2.819q-.51.248-.511.746c.085 7.046 1.447 20.56 2.298 24.87v.083c3.149 10.86 14.042 15.834 16 16.663a.96.96 0 0 0 .68 0Z" opacity=".17"/></g><defs><radialGradient id="b" cx="0" cy="0" r="1" gradientTransform="matrix(0 -18.3481 14.8977 0 19.3 23.029)" gradientUnits="userSpaceOnUse"><stop offset=".26" stop-color="#216cff"/><stop offset="1" stop-color="#216cff"/></radialGradient><linearGradient id="c" x1="20.179" x2="21.78" y1="5.15" y2="29.03" gradientUnits="userSpaceOnUse"><stop stop-color="#ebf5fc"/><stop offset="1" stop-color="#439ddc"/></linearGradient><clipPath id="a"><path fill="#fff" d="M0 0h40v48H0z"/></clipPath></defs></svg>