<svg xmlns="http://www.w3.org/2000/svg" width="150" height="40" fill="none" viewBox="0 0 150 40"><g clip-path="url(#a)"><path fill="url(#b)" d="M16.633 35.464c1.32-.566 8.59-3.981 10.681-11.57 0-.016.01-.033.013-.05.558-2.98 1.478-12.215 1.524-17.277a.52.52 0 0 0-.335-.494c-4.173-1.59-9.193-1.959-11.994-1.959h-.192c-1.572 0-7.763.37-11.991 1.957a.52.52 0 0 0-.336.496c.045 4.88.964 14.298 1.523 17.275 0 .017.007.033.011.05 2.093 7.588 9.364 11 10.682 11.57a.53.53 0 0 0 .414.002"/><path fill="url(#c)" d="M16.311 4.097c-1.576 0-7.784.365-12.022 1.935-.206.077-.323.218-.3.433.145 1.323 3.978 7.56 9.292 11.87 5.772 4.683 13.217 5.528 13.685 5.54.164 0 .382-.137.41-.284.548-2.89 1.448-12.066 1.492-17.071a.52.52 0 0 0-.337-.488c-4.177-1.57-9.216-1.94-12.022-1.94h-.193z" opacity=".3"/><path fill="#fff" d="M21.237 7.377a3.98 3.98 0 0 1 3.56 1.175 3.99 3.99 0 0 1 1.008 3.615 4.04 4.04 0 0 1-1.726 2.491 4.01 4.01 0 0 1-3.526.386 4 4 0 0 1-1.683-1.177 4.02 4.02 0 0 1-.839-3.453 4.05 4.05 0 0 1 1.75-2.47 3.9 3.9 0 0 1 1.456-.567m.115.65a3.26 3.26 0 0 0-1.56.725c-.445.369-.787.848-.991 1.39a3.2 3.2 0 0 0-.155 1.72 3.28 3.28 0 0 0 1.535 2.266c.69.428 1.514.585 2.312.442a3.2 3.2 0 0 0 1.564-.727 3.32 3.32 0 0 0 1.159-2.906c-.056-.51-.228-1-.502-1.434a3.34 3.34 0 0 0-2.055-1.444 3.3 3.3 0 0 0-1.31-.03zm2.159 2.39-.148.033a.266.266 0 0 1-.296-.136q-.336-.634-1.133-.646a1.2 1.2 0 0 0-.694.194 1.35 1.35 0 0 0-.484.579 2.2 2.2 0 0 0-.182.896q-.012.76.347 1.196a1.24 1.24 0 0 0 .99.446c.283.004.56-.082.791-.246.19-.13.337-.312.424-.525a.26.26 0 0 1 .317-.152l.197.063a.223.223 0 0 1 .139.29 1.8 1.8 0 0 1-1.003 1.036 2.1 2.1 0 0 1-.864.157 2.16 2.16 0 0 1-1.1-.292 1.83 1.83 0 0 1-.727-.822 2.9 2.9 0 0 1-.252-1.262 2.5 2.5 0 0 1 .156-.864c.095-.256.243-.49.433-.688a1.9 1.9 0 0 1 .688-.446c.286-.105.589-.153.893-.144a1.97 1.97 0 0 1 1.143.347c.234.167.418.394.532.658a.246.246 0 0 1-.172.335"/><path fill="#f08a00" d="M38.438 25.176a.34.34 0 0 1-.224-.09.3.3 0 0 1-.09-.224l.03-.134 3.591-9.628q.105-.372.523-.373h1.624a.514.514 0 0 1 .521.373l3.592 9.628a.5.5 0 0 1-.007.255.3.3 0 0 1-.068.103.28.28 0 0 1-.208.09h-1.3a.44.44 0 0 1-.298-.09.4.4 0 0 1-.134-.193l-.7-1.822h-4.423l-.7 1.822a.43.43 0 0 1-.433.283zm6.333-3.82-1.7-4.614-1.685 4.613zm4.997 3.82a.35.35 0 0 1-.253-.104.35.35 0 0 1-.104-.255V15.1a.4.4 0 0 1 .089-.268.36.36 0 0 1 .268-.105h1.356a.31.31 0 0 1 .253.104.36.36 0 0 1 .105.27v3.855h4.393V15.1a.4.4 0 0 1 .09-.268.36.36 0 0 1 .267-.105h1.341a.36.36 0 0 1 .348.228.4.4 0 0 1 .025.145v9.717a.36.36 0 0 1-.104.269.4.4 0 0 1-.269.09h-1.34a.35.35 0 0 1-.254-.104.35.35 0 0 1-.104-.255v-4h-4.393v4a.35.35 0 0 1-.105.255.32.32 0 0 1-.253.104zm13.152 0a.356.356 0 0 1-.358-.359v-8.253h-2.756a.355.355 0 0 1-.359-.36V15.1a.4.4 0 0 1 .09-.268.36.36 0 0 1 .269-.105h7.6a.356.356 0 0 1 .371.373v1.105a.35.35 0 0 1-.104.253.36.36 0 0 1-.268.106h-2.742v8.253a.35.35 0 0 1-.227.335.4.4 0 0 1-.145.024zm6.728 0a.36.36 0 0 1-.268-.104.4.4 0 0 1-.09-.269V15.1a.36.36 0 0 1 .226-.35.4.4 0 0 1 .146-.023h1.342a.32.32 0 0 1 .253.104.37.37 0 0 1 .104.27v6.85l4.902-6.985a.5.5 0 0 1 .433-.239h1.237a.32.32 0 0 1 .253.104.37.37 0 0 1 .104.27v9.716a.35.35 0 0 1-.104.255.32.32 0 0 1-.253.104h-1.339a.4.4 0 0 1-.268-.09.36.36 0 0 1-.105-.269v-6.716l-4.888 6.832a.8.8 0 0 1-.178.178.45.45 0 0 1-.254.06z"/><path fill="#216cff" d="M80.967 25.176a.35.35 0 0 1-.253-.104.35.35 0 0 1-.104-.255V15.1a.4.4 0 0 1 .089-.268.37.37 0 0 1 .268-.105h7.809a.36.36 0 0 1 .348.228.4.4 0 0 1 .025.145v9.717a.36.36 0 0 1-.105.269.4.4 0 0 1-.268.09h-1.341a.35.35 0 0 1-.254-.104.35.35 0 0 1-.103-.255v-8.22h-4.393v8.22a.35.35 0 0 1-.104.255.32.32 0 0 1-.254.104zm17.399 0a.35.35 0 0 1-.253-.104.35.35 0 0 1-.106-.255v-8.22h-3.236v1.88q0 2.463-.347 3.895t-1.133 2.09q-.81.657-2.236.702a.35.35 0 0 1-.268-.09.37.37 0 0 1-.104-.268v-1.12a.33.33 0 0 1 .089-.24.5.5 0 0 1 .254-.115q.88-.15 1.296-1.39t.433-3.73v-3.125a.32.32 0 0 1 .104-.255.35.35 0 0 1 .253-.104H99.7a.36.36 0 0 1 .268.104.37.37 0 0 1 .104.27v9.716a.36.36 0 0 1-.104.269.4.4 0 0 1-.268.09zm3.403 0a.33.33 0 0 1-.223-.09.296.296 0 0 1-.09-.223l.03-.135 3.592-9.628q.103-.372.521-.373h1.628a.51.51 0 0 1 .521.373l3.592 9.628q.017.067.015.134a.304.304 0 0 1-.091.223.27.27 0 0 1-.208.091h-1.3a.44.44 0 0 1-.297-.09.4.4 0 0 1-.134-.193l-.701-1.822h-4.426l-.701 1.822a.43.43 0 0 1-.432.283zm6.334-3.82-1.7-4.614-1.684 4.613zm4.997 3.82a.34.34 0 0 1-.253-.104.34.34 0 0 1-.104-.255V15.1a.4.4 0 0 1 .089-.268.36.36 0 0 1 .268-.105h6.08a.36.36 0 0 1 .268.105.36.36 0 0 1 .105.268v1.042a.36.36 0 0 1-.105.269.4.4 0 0 1-.268.09h-4.367v8.313a.347.347 0 0 1-.104.255.31.31 0 0 1-.253.104zm8.092 0a.36.36 0 0 1-.268-.104.4.4 0 0 1-.089-.268V15.1a.4.4 0 0 1 .025-.145.35.35 0 0 1 .202-.203.4.4 0 0 1 .145-.025h1.341a.32.32 0 0 1 .253.104.36.36 0 0 1 .105.27v6.85l4.897-6.985a.5.5 0 0 1 .431-.239h1.237a.32.32 0 0 1 .255.104.38.38 0 0 1 .104.27v9.716a.34.34 0 0 1-.104.255.32.32 0 0 1-.255.104h-1.341a.4.4 0 0 1-.268-.09.36.36 0 0 1-.104-.269v-6.715l-4.887 6.831a.8.8 0 0 1-.18.178.45.45 0 0 1-.253.06zm10.323 0a.34.34 0 0 1-.223-.09.3.3 0 0 1-.068-.102.3.3 0 0 1-.021-.122l.029-.134 3.592-9.628q.104-.372.521-.373h1.618a.514.514 0 0 1 .523.373l3.59 9.628a.4.4 0 0 1 .021.133.3.3 0 0 1-.021.121.32.32 0 0 1-.163.17.3.3 0 0 1-.114.023h-1.297a.44.44 0 0 1-.298-.09.4.4 0 0 1-.134-.194l-.701-1.82h-4.425l-.701 1.82a.43.43 0 0 1-.432.284zm6.334-3.82-1.699-4.614-1.684 4.613zm7.293 3.82a.36.36 0 0 1-.332-.22.34.34 0 0 1-.026-.139v-8.253h-2.762a.355.355 0 0 1-.33-.222.4.4 0 0 1-.027-.137V15.1a.4.4 0 0 1 .089-.268.36.36 0 0 1 .268-.105h7.601a.356.356 0 0 1 .372.373v1.105a.34.34 0 0 1-.104.253.36.36 0 0 1-.268.106h-2.742v8.253a.34.34 0 0 1-.104.255.38.38 0 0 1-.269.104z"/><path stroke="#1e73b7" stroke-miterlimit="10" stroke-width="1.384" d="M16.682 39.31c1.68-.694 10.915-4.91 13.572-14.272q.008-.03.015-.062c.71-3.674 1.879-15.07 1.934-21.313a.645.645 0 0 0-.426-.607C26.483 1.098 20.1.636 16.54.636l-.244.007c-1.998 0-9.863.455-15.236 2.414a.64.64 0 0 0-.426.608c.057 6.02 1.224 17.64 1.934 21.311 0 .022.01.042.015.063C5.243 34.4 14.477 38.614 16.156 39.31c.168.07.357.07.526 0Z" opacity=".17"/></g><defs><radialGradient id="b" cx="0" cy="0" r="1" gradientTransform="matrix(0 -15.6912 12.4275 0 15.523 19.438)" gradientUnits="userSpaceOnUse"><stop offset=".26" stop-color="#216cff"/><stop offset="1" stop-color="#216cff"/></radialGradient><linearGradient id="c" x1="16.259" x2="17.67" y1="4.049" y2="24.518" gradientUnits="userSpaceOnUse"><stop stop-color="#edf9ff"/><stop offset="1" stop-color="#01a8ff"/></linearGradient><clipPath id="a"><path fill="#fff" d="M0 0h150v40H0z"/></clipPath></defs></svg>