<?xml version="1.0" encoding="utf-8"?><svg xmlns="http://www.w3.org/2000/svg" xmlns:xlink="http://www.w3.org/1999/xlink"><symbol fill="currentColor" stroke="currentColor" viewBox="0 0 12 12" id="arrow"><path stroke-width=".3" d="M5.31 9.335a.914.914 0 0 0 1.38 0l4.681-5.186a1.13 1.13 0 0 0 0-1.484.91.91 0 0 0-1.306-.073l-.075.073-3.989 4.423L2.01 2.665a.914.914 0 0 0-1.381 0 1.13 1.13 0 0 0 0 1.484z"/></symbol><symbol fill="currentColor" viewBox="0 0 24 24" id="arrow-long"><path d="m21.468 13.258-7.407 7.194a1.79 1.79 0 0 1-.588.4 1.86 1.86 0 0 1-2.008-.367 1.8 1.8 0 0 1-.397-.582 1.72 1.72 0 0 1 .017-1.368c.096-.215.236-.41.411-.572l4.379-4.246H3.813c-.48 0-.942-.186-1.282-.516A1.74 1.74 0 0 1 2 11.956c0-.467.191-.915.531-1.246s.801-.516 1.282-.516h12.021l-4.337-4.22a1.73 1.73 0 0 1-.5-1.235c.007-.46.198-.899.532-1.224A1.84 1.84 0 0 1 12.79 3c.473-.005.93.169 1.272.486l7.407 7.194A1.704 1.704 0 0 1 22 11.97v.043c0 .467-.191.915-.53 1.245"/></symbol><symbol fill="none" stroke="currentColor" viewBox="0 0 24 24" id="badge-check"><path stroke-linecap="round" stroke-linejoin="round" stroke-width="1.5" d="m9 12 2 2 4-4M3.85 8.62a4 4 0 0 1 4.78-4.77 4 4 0 0 1 6.74 0 4 4 0 0 1 4.78 4.78 4 4 0 0 1 0 6.74 4 4 0 0 1-4.77 4.78 4 4 0 0 1-6.75 0 4 4 0 0 1-4.78-4.77 4 4 0 0 1 0-6.76"/></symbol><symbol fill="currentColor" viewBox="0 0 24 24" id="burger"><path d="M2 5.5C2 4.672 2.746 4 3.667 4h16.666C21.253 4 22 4.672 22 5.5S21.254 7 20.333 7H3.667C2.747 7 2 6.328 2 5.5M2 12c0-.828.746-1.5 1.667-1.5h16.666c.92 0 1.667.672 1.667 1.5s-.746 1.5-1.667 1.5H3.667C2.747 13.5 2 12.828 2 12m1.667 5C2.747 17 2 17.672 2 18.5S2.746 20 3.667 20h16.666c.92 0 1.667-.672 1.667-1.5s-.746-1.5-1.667-1.5z"/></symbol><symbol fill="none" stroke="currentColor" viewBox="0 0 18 18" id="phone"><g clip-path="url(#ea)"><path stroke-linecap="round" stroke-linejoin="round" stroke-width="1.5" d="M16.5 12.69v2.25a1.5 1.5 0 0 1-1.635 1.5 14.84 14.84 0 0 1-6.473-2.303 14.6 14.6 0 0 1-4.5-4.5A14.84 14.84 0 0 1 1.59 3.135 1.5 1.5 0 0 1 3.082 1.5h2.25a1.5 1.5 0 0 1 1.5 1.29 9.6 9.6 0 0 0 .525 2.107A1.5 1.5 0 0 1 7.02 6.48l-.953.952a12 12 0 0 0 4.5 4.5l.953-.952a1.5 1.5 0 0 1 1.582-.338c.68.254 1.388.43 2.108.526a1.5 1.5 0 0 1 1.29 1.522"/></g><defs><clipPath id="ea"><path fill="#fff" stroke="none" d="M0 0h18v18H0z"/></clipPath></defs></symbol><symbol fill="none" stroke="currentColor" viewBox="0 0 24 24" id="shield-check"><path stroke-linecap="round" stroke-linejoin="round" stroke-width="1.5" d="m9 12 2 2 4-4m5 3c0 5-3.5 7.5-7.66 8.95a1 1 0 0 1-.67-.01C7.5 20.5 4 18 4 13V6a1 1 0 0 1 1-1c2 0 4.5-1.2 6.24-2.72a1.17 1.17 0 0 1 1.52 0C14.51 3.81 17 5 19 5a1 1 0 0 1 1 1z"/></symbol><symbol fill="currentColor" viewBox="0 0 24 24" id="star"><path d="M11.049 2.927c.3-.921 1.603-.921 1.902 0l1.519 4.674a1 1 0 0 0 .95.69h4.915c.969 0 1.371 1.24.588 1.81l-3.976 2.888a1 1 0 0 0-.363 1.118l1.518 4.674c.3.922-.755 1.688-1.538 1.118l-3.976-2.888a1 1 0 0 0-1.176 0l-3.976 2.888c-.783.57-1.838-.197-1.538-1.118l1.518-4.674a1 1 0 0 0-.363-1.118l-3.976-2.888c-.783-.57-.38-1.81.588-1.81h4.914a1 1 0 0 0 .951-.69z"/></symbol><symbol fill="currentColor" viewBox="0 0 24 27" id="tarif"><path fill-rule="evenodd" d="M12.095.167c2.517 0 7.084.297 10.931 1.601l.022.007.02.008c.288.11.53.295.695.529.164.233.245.505.236.778a102 102 0 0 1-1.323 13.597l.015.077-.065.207c-1.986 6.445-8.813 9.284-10.006 9.748l-.007.002a1.7 1.7 0 0 1-1.216 0l-.016-.006c-1.147-.458-8.01-3.288-10.002-9.734l-.016-.05-.008-.05a1 1 0 0 1-.016-.127A105 105 0 0 1 0 3.1v-.022a1.3 1.3 0 0 1 .27-.79c.177-.234.432-.415.731-.515C4.905.458 10.497.167 11.925.167zm3.484 7.996a1.3 1.3 0 0 0-.505.147 1.3 1.3 0 0 0-.407.344l-3.658 4.54-1.72-1.723a1.3 1.3 0 0 0-.429-.313 1.26 1.26 0 0 0-1.026-.005c-.162.072-.31.177-.432.31a1.5 1.5 0 0 0-.394 1.015 1.5 1.5 0 0 0 .387 1.019l2.665 2.902a1.27 1.27 0 0 0 1.954-.068l4.667-5.79c.483-.6.424-1.507-.131-2.029a1.255 1.255 0 0 0-.97-.35" clip-rule="evenodd"/></symbol></svg>