<svg xmlns="http://www.w3.org/2000/svg" width="32" height="32" fill="none" viewBox="0 0 32 32"><g clip-path="url(#a)"><path fill="#2787f5" d="M16 32c8.837 0 16-7.163 16-16S24.837 0 16 0 0 7.163 0 16s7.163 16 16 16"/><path fill="#fff" fill-rule="evenodd" d="M8.938 11H6.75c-.625 0-.75.297-.75.625 0 .586.742 3.49 3.454 7.33C11.262 21.578 13.809 23 16.127 23c1.391 0 1.563-.316 1.563-.86v-1.982c0-.632.132-.758.572-.758.325 0 .881.164 2.18 1.429C21.924 22.328 22.168 23 23.003 23h2.188c.625 0 .938-.316.757-.94-.197-.62-.905-1.521-1.845-2.59-.51-.608-1.275-1.264-1.507-1.592-.324-.422-.232-.609 0-.983 0 0 2.666-3.794 2.944-5.082.14-.469 0-.813-.662-.813h-2.188c-.556 0-.812.297-.951.625 0 0-1.113 2.74-2.69 4.52-.51.515-.741.68-1.02.68-.139 0-.34-.165-.34-.633v-4.38c0-.561-.161-.812-.625-.812h-3.438c-.348 0-.557.26-.557.508 0 .533.788.656.87 2.155v3.255c0 .714-.128.843-.406.843-.742 0-2.546-2.752-3.617-5.902-.21-.612-.42-.859-.979-.859" clip-rule="evenodd"/></g><defs><clipPath id="a"><path fill="#fff" d="M0 0h32v32H0z"/></clipPath></defs></svg>