<svg xmlns="http://www.w3.org/2000/svg" width="24" height="24" fill="none" viewBox="0 0 24 24"><path fill="#3c3c3c" d="M10.932 8.839a4.56 4.56 0 0 1 3.325 1.819l.06.092a1.08 1.08 0 0 1-1.72 1.286l-.236-.283a2.4 2.4 0 0 0-1.454-.746l-.13-.014a2.4 2.4 0 0 0-1.674.523l-.002.003-.195.176-2.067 2.067-.162.184a2.406 2.406 0 0 0 1.861 3.892 2.4 2.4 0 0 0 1.688-.673l1.177-1.177a1.08 1.08 0 0 1 1.445-.075l.082.074.075.082c.345.424.32 1.05-.075 1.446l-1.19 1.19-.006.006-.003.004-.005.003A4.558 4.558 0 0 1 4 15.478a4.57 4.57 0 0 1 1.103-3.016l-.01-.01 2.287-2.289a4.56 4.56 0 0 1 3.552-1.324m4.771-4.832a4.566 4.566 0 0 1 3.017 7.725l-.008.009-.005.006-2.089 2.09a4.6 4.6 0 0 1-1.63 1.048l-.007.002-.216.075-.008.003a4.6 4.6 0 0 1-1.26.208h-.192l-.229-.01h-.007a4.56 4.56 0 0 1-3.326-1.82 1.08 1.08 0 0 1 1.659-1.378l.235.283a2.42 2.42 0 0 0 1.586.76c.343.024.688-.026 1.01-.146l.118-.048a2.4 2.4 0 0 0 .74-.505l2.075-2.078.004-.005a2.406 2.406 0 0 0-.034-3.363 2.4 2.4 0 0 0-3.35-.042v.003l-1.198 1.191a1.08 1.08 0 0 1-1.524-1.53l1.196-1.193.025-.025.011-.007A4.56 4.56 0 0 1 15.48 4z"/></svg>