<svg xmlns="http://www.w3.org/2000/svg" width="32" height="32" fill="none" viewBox="0 0 32 32"><g clip-path="url(#a)"><path fill="#f7931e" d="M16 32c8.837 0 16-7.163 16-16S24.837 0 16 0 0 7.163 0 16s7.163 16 16 16"/><path fill="#fff" d="M19.64 16.833a1.48 1.48 0 0 1 2.04.218c.502.607.401 1.494-.224 1.981-.07.055-1.35 1.036-3.485 1.458l3.225 3.104a1.38 1.38 0 0 1 .002 1.993 1.48 1.48 0 0 1-2.053.002l-3.13-2.961-2.845 2.941a1.47 1.47 0 0 1-1.045.432 1.47 1.47 0 0 1-1.007-.396 1.38 1.38 0 0 1-.037-1.992l3.062-3.106c-2.197-.413-3.531-1.421-3.6-1.475a1.38 1.38 0 0 1-.224-1.981 1.48 1.48 0 0 1 2.04-.218c.014.01 1.409 1.028 3.656 1.03 2.247-.002 3.612-1.02 3.626-1.03M16.088 6c2.948 0 5.338 2.32 5.338 5.183s-2.39 5.183-5.338 5.183-5.338-2.321-5.338-5.183C10.749 8.32 13.139 6 16.087 6m0 3.041c-1.219 0-2.206.96-2.206 2.143s.987 2.141 2.206 2.141 2.206-.958 2.206-2.141-.988-2.143-2.206-2.143"/></g><defs><clipPath id="a"><path fill="#fff" d="M0 0h32v32H0z"/></clipPath></defs></svg>