<svg xmlns="http://www.w3.org/2000/svg" width="48" height="48" fill="none" viewBox="0 0 48 48"><path fill="#3c3c3c" fill-rule="evenodd" d="M17 12a5 5 0 1 1 0 10 5 5 0 0 1 0-10m0 4a1 1 0 1 0 0 2 1 1 0 0 0 0-2" clip-rule="evenodd"/><path fill="#3c3c3c" fill-rule="evenodd" d="M38 4a6 6 0 0 1 6 6v28a6 6 0 0 1-6 6H10a6 6 0 0 1-6-6V10a6 6 0 0 1 6-6zM14.828 40H38a2 2 0 0 0 2-2v-7.172l-8-8zM10 8a2 2 0 0 0-2 2v28c0 .858.54 1.587 1.299 1.871l21.287-21.285.152-.137a2 2 0 0 1 2.676.137L40 25.172V10a2 2 0 0 0-2-2z" clip-rule="evenodd"/></svg>