<?xml version="1.0" encoding="utf-8"?><svg xmlns="http://www.w3.org/2000/svg" xmlns:xlink="http://www.w3.org/1999/xlink"><symbol fill="currentColor" viewBox="0 0 24 24" id="like"><path d="M16.413 2.8a6.02 6.02 0 0 1 4.244 1.754 6 6 0 0 1 1.758 4.231 5.97 5.97 0 0 1-1.553 4.017l-.205.213-7.882 7.865a1.1 1.1 0 0 1-1.552 0l-7.882-7.865a5.98 5.98 0 0 1-1.757-4.23 5.98 5.98 0 0 1 1.757-4.231A6 6 0 0 1 7.585 2.8c1.593 0 3.12.63 4.245 1.753l.169.168.17-.168A6 6 0 0 1 16.412 2.8m0 2.18a3.81 3.81 0 0 0-2.692 1.113l-.946.943a1.1 1.1 0 0 1-1.552 0l-.944-.942a3.814 3.814 0 0 0-5.386 0 3.804 3.804 0 0 0 0 5.383l7.106 7.088 7.106-7.088.131-.137a3.802 3.802 0 0 0-1.366-6.071 3.8 3.8 0 0 0-1.457-.29"/></symbol><symbol fill="currentColor" viewBox="0 0 24 24" id="like-fill"><path d="M22 8.785a5.88 5.88 0 0 1-.432 2.214 5.788 5.788 0 0 1-1.232 1.875l-7.719 7.865a.862.862 0 0 1-1.235 0l-7.72-7.865A5.84 5.84 0 0 1 2 8.784c0-1.533.598-3.005 1.663-4.09a5.624 5.624 0 0 1 4.014-1.693c1.506 0 2.95.609 4.015 1.693l.308.314.307-.314a5.672 5.672 0 0 1 1.842-1.253 5.586 5.586 0 0 1 4.346 0 5.67 5.67 0 0 1 1.841 1.253 5.792 5.792 0 0 1 1.232 1.877c.285.702.432 1.454.432 2.214Z"/></symbol><symbol fill="currentColor" viewBox="0 0 14 14" id="time"><path d="M6.666 0a6.667 6.667 0 1 1 0 13.333A6.667 6.667 0 0 1 6.666 0m0 1.333a5.333 5.333 0 1 0 0 10.667 5.333 5.333 0 0 0 0-10.667m0 1.067c.368 0 .667.298.667.666v3.188l2.03 1.016a.666.666 0 1 1-.595 1.192l-2.4-1.2a.67.67 0 0 1-.369-.596v-3.6c0-.368.3-.666.667-.666"/></symbol><symbol fill="currentColor" viewBox="0 0 15 11" id="views"><path d="M7.345 0c2.388 0 4.216 1.316 5.4 2.535a12.2 12.2 0 0 1 1.716 2.251q.041.068.067.118l.004-.002.047.093.08.078-.032.031a.7.7 0 0 1-.037.548l-.01.02h-.002l-.047.093-.003-.002q-.027.05-.067.118a12.15 12.15 0 0 1-1.715 2.25c-1.185 1.22-3.013 2.536-5.4 2.536S3.13 9.35 1.944 8.13A12.2 12.2 0 0 1 .228 5.88l-.067-.118-.002.002-.048-.093H.11l-.01-.02-.002-.005-.004-.01a.7.7 0 0 1-.04-.504L0 5.103l.112-.11.048-.09h.002l.067-.117a12.15 12.15 0 0 1 1.715-2.25C3.13 1.315 4.959 0 7.346 0m0 1.417c-1.807 0-3.276.998-4.338 2.09A10.7 10.7 0 0 0 1.59 5.334c.059.095.13.21.216.336.273.408.677.95 1.201 1.49C4.07 8.253 5.538 9.25 7.345 9.25c1.808 0 3.277-.997 4.339-2.09a10.7 10.7 0 0 0 1.415-1.826 10.728 10.728 0 0 0-1.415-1.827c-1.062-1.092-2.531-2.09-4.339-2.09m0 1.474c1.392 0 2.528 1.09 2.528 2.443S8.737 7.776 7.345 7.776s-2.527-1.09-2.527-2.442S5.953 2.89 7.345 2.89m0 1.416c-.593 0-1.068.464-1.068 1.027S6.752 6.36 7.345 6.36l.11-.006c.541-.053.958-.493.958-1.02 0-.528-.417-.968-.958-1.021z"/></symbol></svg>