<?xml version="1.0" encoding="utf-8"?><svg xmlns="http://www.w3.org/2000/svg" xmlns:xlink="http://www.w3.org/1999/xlink"><symbol fill="currentColor" viewBox="0 0 14 74" id="arrow"><path fill-opacity=".8" d="M5.845 14.631c.119-1.418 2.195-1.418 2.313 0l4.419 52.83a5.595 5.595 0 1 1-11.15 0z"/><circle cx="6.994" cy="67.023" r="2" fill="#fff"/></symbol><symbol fill="currentColor" viewBox="0 0 10 50" id="attention"><path d="M5 39.995a4.998 4.998 0 1 1-.001 9.996A4.998 4.998 0 0 1 5 39.995M5 0c2.941 0 5.244 2.678 4.978 5.786L7.686 32.4C7.558 33.87 6.393 34.995 5 34.995S2.44 33.871 2.312 32.4L.022 5.786C-.244 2.678 2.059 0 5 0"/></symbol><symbol fill="currentColor" viewBox="0 0 24 24" id="copy"><path d="M14.413 2a.86.86 0 0 1 .55.202l.047.041 5.734 5.415a.614.614 0 0 1 .05.052c.011.012.023.024.033.037a.746.746 0 0 1 .175.476l-.003.047v8.507a2.27 2.27 0 0 1-.724 1.65 2.547 2.547 0 0 1-1.747.684H8.646a2.547 2.547 0 0 1-1.747-.683 2.27 2.27 0 0 1-.723-1.65V4.332c0-.619.26-1.212.723-1.65A2.547 2.547 0 0 1 8.646 2zM8.646 3.556a.849.849 0 0 0-.582.227.757.757 0 0 0-.24.55v12.444c0 .207.086.405.24.551a.85.85 0 0 0 .582.228h9.882a.85.85 0 0 0 .583-.228.758.758 0 0 0 .241-.55V9h-4.939c-.455 0-.823-.348-.823-.777V3.556zm6.591 3.888h2.952l-2.952-2.787z"/><path d="M7 6.446H5.47a.849.849 0 0 0-.581.228.757.757 0 0 0-.242.55v12.444c0 .206.087.405.242.55a.85.85 0 0 0 .582.228h9.881a.85.85 0 0 0 .583-.227.758.758 0 0 0 .242-.551V18h1.646v1.668a2.27 2.27 0 0 1-.723 1.65 2.548 2.548 0 0 1-1.748.684H5.471a2.547 2.547 0 0 1-1.747-.684A2.27 2.27 0 0 1 3 19.668V7.224c0-.62.26-1.212.724-1.65a2.547 2.547 0 0 1 1.747-.683H7z"/></symbol><symbol fill="currentColor" fill-rule="evenodd" clip-rule="evenodd" viewBox="0 0 24 24" id="info"><path d="M12 22c5.523 0 10-4.477 10-10S17.523 2 12 2 2 6.477 2 12s4.477 10 10 10m0-1.818a8.182 8.182 0 1 0 0-16.364 8.182 8.182 0 0 0 0 16.364m-1.136-8.408a1.135 1.135 0 1 1 2.273 0v4.543c0 .628-.51 1.137-1.137 1.137a1.135 1.135 0 0 1-1.136-1.137zm-.228-3.865a1.365 1.365 0 0 1 2.728 0 1.365 1.365 0 0 1-2.728 0"/></symbol><symbol fill="currentColor" viewBox="0 0 100 100" id="lock"><path d="M79.164 43.53c0-2.209-1.778-3.906-3.767-3.906H24.598c-1.989 0-3.762 1.698-3.762 3.906v43.125c0 2.21 1.773 3.91 3.762 3.911h50.8c1.989 0 3.766-1.702 3.766-3.91zM45.296 69.81V58.492A4.71 4.71 0 0 1 50 53.775a4.711 4.711 0 0 1 4.704 4.717V69.81A4.711 4.711 0 0 1 50 74.527a4.71 4.71 0 0 1-4.704-4.717m43.275 16.845c0 7.279-5.85 13.345-13.174 13.345H24.598c-7.324 0-13.17-6.066-13.17-13.345V43.53c0-5.252 3.05-9.862 7.497-12.027a4.774 4.774 0 0 1-.087-.912c0-16.868 13.364-30.59 30.1-30.591 10.412 0 19.548 5.329 24.94 13.414a4.728 4.728 0 0 1-1.296 6.546 4.696 4.696 0 0 1-6.522-1.3c-3.732-5.598-10.002-9.226-17.12-9.226-11.273 0-20.476 9.148-20.685 20.756h47.143c7.324 0 13.174 6.062 13.174 13.34z"/></symbol><symbol fill="currentColor" fill-rule="evenodd" clip-rule="evenodd" viewBox="0 0 64 64" id="pen"><path d="M49.313 10.219a4.47 4.47 0 0 0-3.16 1.308L13.629 44.053l-2.37 8.687 8.688-2.37L52.47 17.846a4.466 4.466 0 0 0-3.158-7.626m-3.58-4.175A9.354 9.354 0 0 1 55.927 21.3L22.942 54.285c-.3.3-.674.517-1.084.63L8.419 58.578a2.443 2.443 0 0 1-3-3L9.084 42.14c.112-.41.33-.784.63-1.085L42.698 8.072a9.4 9.4 0 0 1 3.035-2.028"/></symbol><symbol fill="currentColor" viewBox="0 0 11 20" id="question"><path d="M4.81 17.55a1.462 1.462 0 0 1 2.068-.103c.6.543.645 1.467.102 2.069a1.478 1.478 0 0 1-2.082.104 1.481 1.481 0 0 1-.103-2.085zM5.499.015c2.728 0 5.499 1.819 5.499 5.311 0 2.407-1.275 3.537-2.2 4.373-.879.793-1.466 1.32-1.466 2.964 0 .807-.66 1.467-1.467 1.467A1.47 1.47 0 0 1 4.4 12.663c0-2.964 1.423-4.226 2.45-5.15.806-.72 1.216-1.086 1.216-2.187 0-.763-.249-1.35-.748-1.775-.454-.396-1.114-.616-1.818-.616-.264 0-2.566.058-2.566 2.377 0 .806-.66 1.467-1.466 1.467A1.47 1.47 0 0 1 0 5.312C0 1.834 2.771 0 5.499 0z"/></symbol><symbol fill="currentColor" viewBox="0 0 260 130" id="scale"><path d="M250.707 129.999c5.128 0 9.32-4.163 8.954-9.279a129.992 129.992 0 0 0-17.085-55.721c-11.41-19.763-26.892-35.245-46.655-46.655l-32.5 56.291c9.881 5.705 17.158 12.982 22.863 22.863a64.987 64.987 0 0 1 8.046 23.246c.731 5.076 4.82 9.255 9.948 9.255z"/><path d="M194.064 17.418C174.302 6.008 152.812.93 129.993.93c-22.82 0-44.31 5.078-64.072 16.488l32.5 56.291c9.881-5.705 21.09-8.708 32.5-8.708s20.762 3.003 30.643 8.708z" opacity=".5"/><path d="M64.072 18.344c-19.763 11.41-35.245 26.892-46.655 46.655A130 130 0 0 0 .33 120.72c-.366 5.116 3.826 9.279 8.955 9.279h46.428c5.129 0 9.202-4.174 9.8-9.267.92-7.826 3.146-15.17 7.266-22.305A65 65 0 0 1 96.57 74.635z" opacity=".2"/></symbol></svg>