<?xml version="1.0" encoding="utf-8"?><svg xmlns="http://www.w3.org/2000/svg" xmlns:xlink="http://www.w3.org/1999/xlink"><symbol fill="currentColor" viewBox="0 0 24 24" id="done"><path d="M22 12c0 5.523-4.477 10-10 10S2 17.523 2 12 6.477 2 12 2s10 4.477 10 10"/><path fill="#fff" d="M10.051 15.606c.547.55 1.446.52 1.955-.063l4.666-5.343a1.324 1.324 0 0 0-.581-2.131 1.352 1.352 0 0 0-1.025.071 1.291 1.291 0 0 0-.407.317l-3.658 4.191-1.72-1.59a1.3 1.3 0 0 0-.428-.29 1.346 1.346 0 0 0-1.458.282 1.335 1.335 0 0 0-.395.937c-.002.35.137.686.386.94z"/></symbol><symbol fill="currentColor" viewBox="0 0 64 64" id="play"><circle cx="32" cy="32" r="32" fill-opacity=".8"/><path fill="#fff" d="M40.96 31.996a1.259 1.259 0 0 1-.608 1.081l-11.527 7.051a1.281 1.281 0 0 1-1.77-.44 1.268 1.268 0 0 1-.175-.641V24.946a1.268 1.268 0 0 1 .65-1.106 1.28 1.28 0 0 1 1.295.024l11.527 7.051a1.26 1.26 0 0 1 .608 1.081"/></symbol><symbol fill="currentColor" viewBox="0 0 24 24" id="shield"><path fill-rule="evenodd" d="M12.071 2c1.888 0 5.313.224 8.199 1.201l.015.005.016.006c.216.082.397.222.52.397a.954.954 0 0 1 .178.583 76.626 76.626 0 0 1-.992 10.198l.01.058-.047.156c-1.49 4.833-6.61 6.962-7.505 7.31l-.005.002a1.278 1.278 0 0 1-.913 0l-.006-.002-.006-.003c-.86-.344-6.007-2.466-7.5-7.3l-.013-.038-.006-.037a.742.742 0 0 1-.012-.095A78.485 78.485 0 0 1 3 4.2v-.016a.968.968 0 0 1 .202-.593c.133-.175.324-.31.549-.386C6.679 2.218 10.873 2 11.943 2zm2.613 5.997a.984.984 0 0 0-.684.368l-2.743 3.405-1.29-1.291a.942.942 0 0 0-1.092-.24.975.975 0 0 0-.323.233 1.132 1.132 0 0 0-.296.761c-.001.284.103.557.29.764l1.998 2.177a.952.952 0 0 0 1.466-.051l3.5-4.342a1.14 1.14 0 0 0-.098-1.522.944.944 0 0 0-.728-.262" clip-rule="evenodd"/></symbol></svg>