<svg xmlns="http://www.w3.org/2000/svg" width="32" height="32" fill="none" viewBox="0 0 32 32"><g clip-path="url(#a)"><path fill="#25a3e1" d="M16 32c8.837 0 16-7.163 16-16S24.837 0 16 0 0 7.163 0 16s7.163 16 16 16"/><path fill="#fff" fill-rule="evenodd" d="M7.232 15.47c4.831-2.11 8.047-3.513 9.662-4.193C21.49 9.347 22.457 9.014 23.078 9c.138 0 .441.028.648.194.166.14.207.32.235.458.028.14.055.43.028.653-.249 2.638-1.326 9.038-1.878 11.98-.234 1.25-.69 1.667-1.131 1.708-.966.084-1.698-.638-2.623-1.249-1.463-.958-2.277-1.555-3.699-2.499-1.642-1.083-.58-1.68.359-2.652.248-.25 4.486-4.137 4.569-4.484.013-.041.013-.208-.083-.291-.097-.083-.235-.056-.345-.028-.152.028-2.47 1.583-6.984 4.65-.663.459-1.256.681-1.795.667-.593-.014-1.725-.333-2.58-.61-1.036-.334-1.864-.514-1.795-1.098.041-.305.456-.61 1.228-.93" clip-rule="evenodd"/></g><defs><clipPath id="a"><path fill="#fff" d="M0 0h32v32H0z"/></clipPath></defs></svg>